<svg width="119" height="172" viewBox="0 0 119 172" fill="none" xmlns="http://www.w3.org/2000/svg">
<rect x="23.252" y="45.7061" width="73.3706" height="94.4196" rx="36.6853" fill="#F8D1CF"/>
<path d="M8.33582 98.0802C8.33582 90.6372 14.3695 84.6035 21.8125 84.6035H27.8022V111.557H21.8125C14.3695 111.557 8.33582 105.523 8.33582 98.0802Z" fill="#F8D1CF"/>
<path d="M92.1909 83.1055H98.1806C105.624 83.1055 111.657 89.1392 111.657 96.5822C111.657 104.025 105.624 110.059 98.1806 110.059H92.1909V83.1055Z" fill="#F8D1CF"/>
<path d="M23.3101 101.823C21.8127 101.573 18.8179 100.176 18.8179 96.5821C18.8179 92.9883 21.8127 92.0898 23.3101 92.0898" stroke="#232222" stroke-width="1.8042" stroke-linecap="round"/>
<path d="M95.1855 101.074C96.6829 100.844 99.6777 99.5539 99.6777 96.2365C99.6777 92.9192 96.6829 92.0898 95.1855 92.0898" stroke="#232222" stroke-width="1.8042" stroke-linecap="round"/>
<path d="M59.248 79.3623V89.0955" stroke="#323030" stroke-width="1.8042" stroke-linecap="round"/>
<path d="M24.0591 71.127V83.1063" stroke="#9A9A9A" stroke-width="3.00699" stroke-linecap="round"/>
<path d="M36.0381 107.814C38.5338 108.063 44.1241 107.514 46.52 103.321" stroke="#323030" stroke-width="1.8042" stroke-linecap="round"/>
<path d="M83.1677 108.015C80.3048 108.019 73.985 106.935 71.6089 102.572" stroke="#323030" stroke-width="1.8042" stroke-linecap="round"/>
<path d="M95.186 71.127V83.1063" stroke="#9A9A9A" stroke-width="3.00699" stroke-linecap="round"/>
<path d="M59.2478 111.557C56.5195 111.308 51.2116 109.461 51.8069 104.07C52.4022 98.6794 57.0155 96.8326 59.2478 96.583" stroke="#323030" stroke-width="1.8042" stroke-linecap="round"/>
<circle cx="64.4888" cy="109.311" r="2.24612" fill="#323030"/>
<path d="M51.7609 90.5929C51.7609 92.9757 50.8144 95.2609 49.1295 96.9459C47.4445 98.6308 45.1593 99.5774 42.7765 99.5774C40.3936 99.5774 38.1084 98.6308 36.4235 96.9459C34.7386 95.2609 33.792 92.9757 33.792 90.5929L42.7765 90.5929H51.7609Z" fill="#FFF7F7"/>
<circle cx="43.3708" cy="92.0905" r="2.99483" fill="black"/>
<rect x="30" y="87.1035" width="23.9586" height="7.48706" rx="3.74353" transform="rotate(-9.86134 30 87.1035)" fill="#9A9A9A"/>
<rect x="30" y="87.1035" width="23.9586" height="7.48706" rx="3.74353" transform="rotate(-9.86134 30 87.1035)" fill="#9A9A9A"/>
<path d="M84.9985 90.5929C84.9985 92.9757 84.0519 95.2609 82.367 96.9459C80.6821 98.6308 78.3968 99.5774 76.014 99.5774C73.6312 99.5774 71.346 98.6308 69.661 96.9459C67.9761 95.2609 67.0295 92.9757 67.0295 90.5929L76.014 90.5929H84.9985Z" fill="#FFF7F7"/>
<circle cx="79.6224" cy="90.8874" r="2.99483" fill="black"/>
<rect x="63.74" y="83.1055" width="23.9586" height="7.48706" rx="3.74353" fill="#9A9A9A"/>
<rect x="63.74" y="83.1055" width="23.9586" height="7.48706" rx="3.74353" fill="#9A9A9A"/>
<path d="M60.7456 0.15918L94.4623 57.4352H27.0289L60.7456 0.15918Z" fill="#913333"/>
<path d="M5.99999 54.5131L60.8755 0.371927L80.9939 36.6665L5.99999 54.5131Z" fill="#913333"/>
<circle cx="9.08489" cy="53.3168" r="8.23577" fill="#EFEFEF"/>
<rect x="17.3206" y="57.0605" width="82.3577" height="14.9741" fill="#EFEFEF"/>
<path d="M25.0562 113.062H95.4198V136.818C95.4198 156.248 79.6684 172 60.238 172C40.8076 172 25.0562 156.248 25.0562 136.818V113.062Z" fill="#D9D9D9"/>
<circle cx="37.9862" cy="148.245" r="2.1049" fill="#647650"/>
<circle cx="43.3985" cy="153.657" r="3.30769" fill="#647650"/>
<path d="M56.6293 125.992H79.7831C79.7831 129.901 80.0839 129.901 76.4755 134.712C72.8671 139.524 78.5804 150.349 70.4615 150.349C62.3426 150.349 71.9649 134.712 63.5454 134.712C56.8097 134.712 56.1281 128.899 56.6293 125.992Z" fill="#E3C66A"/>
<path d="M38.2867 119.076C38.2867 115.755 40.9793 113.062 44.3007 113.062H73.7693C77.0907 113.062 79.7832 115.755 79.7832 119.076V126.293H38.2867V119.076Z" fill="#A59E9E"/>
<path d="M48.6855 128.027L48.6855 120.54" stroke="#323030" stroke-width="1.8042" stroke-linecap="round"/>
<path d="M70.105 128.027L70.105 120.54" stroke="#323030" stroke-width="1.8042" stroke-linecap="round"/>
<path d="M59.395 128.027L59.395 120.54" stroke="#323030" stroke-width="1.8042" stroke-linecap="round"/>
</svg>
