<svg width="197" height="286" viewBox="0 0 197 286" fill="none" xmlns="http://www.w3.org/2000/svg">
    <rect x="38" y="76" width="122" height="157" rx="61" fill="#F8D1CF" />
    <g id="ear1">
        <path
            d="M13.1978 163.087C13.1978 150.711 23.2306 140.678 35.6067 140.678H45.5662V185.496H35.6067C23.2306 185.496 13.1978 175.463 13.1978 163.087Z"
            fill="#F8D1CF" />
        <path
            d="M38.0966 169.311C35.6067 168.896 30.627 166.572 30.627 160.597C30.627 154.621 35.6067 153.127 38.0966 153.127"
            stroke="#232222" stroke-width="3" stroke-linecap="round" />
    </g>
    <g id="ear2">
        <path
            d="M152.631 138.188H162.591C174.967 138.188 185 148.22 185 160.596C185 172.973 174.967 183.005 162.591 183.005H152.631V138.188Z"
            fill="#F8D1CF" />
        <path
            d="M157.611 168.066C160.101 167.683 165.081 165.538 165.081 160.022C165.081 154.506 160.101 153.127 157.611 153.127"
            stroke="#232222" stroke-width="3" stroke-linecap="round" />
    </g>
    <path d="M97.854 131.963V148.147" stroke="#323030" stroke-width="3" stroke-linecap="round" />
    <path d="M39.3418 118.269V138.188" stroke="#9A9A9A" stroke-width="5" stroke-linecap="round" />
    <path d="M59.2607 179.271C63.4105 179.686 72.7061 178.773 76.6899 171.801" stroke="#323030" stroke-width="3"
        stroke-linecap="round" />
    <path d="M137.628 179.607C132.867 179.613 122.359 177.811 118.408 170.555" stroke="#323030" stroke-width="3"
        stroke-linecap="round" />
    <path d="M157.611 118.269V138.188" stroke="#9A9A9A" stroke-width="5" stroke-linecap="round" />
    <path
        d="M97.8542 185.496C93.3176 185.081 84.4917 182.01 85.4816 173.046C86.4714 164.083 94.1424 161.012 97.8542 160.597"
        stroke="#323030" stroke-width="3" stroke-linecap="round" />
    <circle cx="106.569" cy="181.761" r="3.73483" fill="#323030" />
    <path
        d="M85.4045 150.637C85.4045 154.599 83.8305 158.399 81.0289 161.201C78.2272 164.002 74.4273 165.576 70.4652 165.576C66.503 165.576 62.7032 164.002 59.9015 161.201C57.0998 158.399 55.5259 154.599 55.5259 150.637L70.4652 150.637H85.4045Z"
        fill="#FFF7F7" />
    <circle id="eye1" cx="66.4651" cy="153.127" r="4.97977" fill="black" />
    <rect x="50.5459" y="138.188" width="39.8381" height="12.4494" rx="6.22471" fill="#9A9A9A" />
    <rect x="50.5459" y="138.188" width="39.8381" height="12.4494" rx="6.22471" fill="#9A9A9A" />
    <path
        d="M140.672 150.637C140.672 154.599 139.098 158.399 136.296 161.201C133.495 164.002 129.695 165.576 125.733 165.576C121.771 165.576 117.971 164.002 115.169 161.201C112.367 158.399 110.793 154.599 110.793 150.637L125.733 150.637H140.672Z"
        fill="#FFF7F7" />
    <circle id="eye2" cx="131.733" cy="151.127" r="4.97977" fill="black" />
    <rect x="105.324" y="138.188" width="39.8381" height="12.4494" rx="6.22471" fill="#9A9A9A" />
    <rect x="105.324" y="138.188" width="39.8381" height="12.4494" rx="6.22471" fill="#9A9A9A" />
    <path d="M100.344 0.264648L156.408 95.5027H44.2805L100.344 0.264648Z" fill="#913333" />
    <path d="M9.31401 90.6436L100.561 0.618145L134.013 60.9684L9.31401 90.6436Z" fill="#913333" />
    <circle cx="14.4434" cy="88.6553" r="13.6944" fill="#EFEFEF" />
    <rect x="28.1377" y="94.8799" width="136.944" height="24.8988" fill="#EFEFEF" />
    <path d="M41 188H158V227.5C158 259.809 131.809 286 99.5 286C67.1913 286 41 259.809 41 227.5V188Z" fill="#D9D9D9" />
    <circle cx="62.5" cy="246.5" r="3.5" fill="#647650" />
    <circle cx="71.5" cy="255.5" r="5.5" fill="#647650" />
    <path id="vomit"
        d="M93.5 209.5H132C132 216 132.5 216 126.5 224C120.5 232 130 250 116.5 250C103 250 119 224 105 224C93.8 224 92.6666 214.333 93.5 209.5Z"
        fill="#E3C66A" />
    <path d="M63 198C63 192.477 67.4772 188 73 188H122C127.523 188 132 192.477 132 198V210H63V198Z" fill="#A59E9E" />
    <path d="M80.291 212.884L80.291 200.435" stroke="#323030" stroke-width="3" stroke-linecap="round" />
    <path d="M115.907 212.884L115.907 200.435" stroke="#323030" stroke-width="3" stroke-linecap="round" />
    <path d="M98.0986 212.884L98.0986 200.435" stroke="#323030" stroke-width="3" stroke-linecap="round" />
</svg>