<svg viewBox="0 0 282 70" fill="none" xmlns="http://www.w3.org/2000/svg">
<path d="M31.5 0L282 7.99484L265.5 70H0L31.5 0Z" fill="#913333"/>
<path d="M130.214 47.992C128.582 47.992 127.166 47.68 125.966 47.056C124.766 46.432 123.842 45.544 123.194 44.392C122.546 43.24 122.222 41.884 122.222 40.324V35.212C122.222 33.628 122.546 32.272 123.194 31.144C123.842 29.992 124.766 29.104 125.966 28.48C127.166 27.856 128.582 27.544 130.214 27.544C131.846 27.544 133.262 27.856 134.462 28.48C135.662 29.104 136.586 29.992 137.234 31.144C137.882 32.272 138.206 33.628 138.206 35.212V40.324C138.206 41.884 137.882 43.24 137.234 44.392C136.586 45.544 135.662 46.432 134.462 47.056C133.262 47.68 131.846 47.992 130.214 47.992ZM130.214 44.572C131.534 44.572 132.554 44.212 133.274 43.492C133.994 42.748 134.354 41.692 134.354 40.324V35.212C134.354 33.82 133.994 32.764 133.274 32.044C132.554 31.324 131.534 30.964 130.214 30.964C128.918 30.964 127.898 31.324 127.154 32.044C126.434 32.764 126.074 33.82 126.074 35.212V40.324C126.074 41.692 126.434 42.748 127.154 43.492C127.898 44.212 128.918 44.572 130.214 44.572ZM144.204 47.668V27.868H148.092V35.824H151.26L156.516 27.868H160.908L154.608 37.372L161.016 47.668H156.552L151.26 39.172H148.092V47.668H144.204Z" fill="white"/>
</svg>
