<svg width="172" height="172" viewBox="0 0 172 172" fill="none" xmlns="http://www.w3.org/2000/svg">
<rect x="56.4478" y="48.8496" width="59.5964" height="76.6937" rx="29.7982" fill="#F8D1CF"/>
<path d="M44.332 91.391C44.332 85.3453 49.233 80.4443 55.2787 80.4443H60.1439V102.338H55.2787C49.233 102.338 44.332 97.4367 44.332 91.391V91.391Z" fill="#F8D1CF"/>
<path d="M112.444 79.2275H117.31C123.355 79.2275 128.256 84.1285 128.256 90.1742V90.1742C128.256 96.2199 123.355 101.121 117.31 101.121H112.444V79.2275Z" fill="#F8D1CF"/>
<path d="M56.4951 94.4313C55.2788 94.2286 52.8462 93.0934 52.8462 90.1743C52.8462 87.2552 55.2788 86.5254 56.4951 86.5254" stroke="#232222" stroke-width="1.8042" stroke-linecap="round"/>
<path d="M114.877 93.8232C116.093 93.636 118.526 92.5882 118.526 89.8936C118.526 87.199 116.093 86.5254 114.877 86.5254" stroke="#232222" stroke-width="1.8042" stroke-linecap="round"/>
<path d="M85.686 76.1875V84.0934" stroke="#323030" stroke-width="1.8042" stroke-linecap="round"/>
<path d="M57.1035 69.498V79.2284" stroke="#9A9A9A" stroke-width="3.00699" stroke-linecap="round"/>
<path d="M66.8335 99.2973C68.8607 99.5 73.4015 99.0541 75.3476 95.6484" stroke="#323030" stroke-width="1.8042" stroke-linecap="round"/>
<path d="M105.115 99.4604C102.79 99.4634 97.6567 98.5833 95.7267 95.0389" stroke="#323030" stroke-width="1.8042" stroke-linecap="round"/>
<path d="M114.877 69.498V79.2284" stroke="#9A9A9A" stroke-width="3.00699" stroke-linecap="round"/>
<path d="M85.686 102.338C83.4698 102.135 79.1585 100.635 79.642 96.2563C80.1255 91.8776 83.8728 90.3775 85.686 90.1748" stroke="#323030" stroke-width="1.8042" stroke-linecap="round"/>
<circle cx="89.9431" cy="100.513" r="1.82444" fill="#323030"/>
<path d="M79.6048 85.3095C79.6048 87.245 78.836 89.1012 77.4674 90.4698C76.0988 91.8384 74.2425 92.6073 72.3071 92.6073C70.3716 92.6073 68.5153 91.8384 67.1467 90.4698C65.7781 89.1012 65.0093 87.245 65.0093 85.3095L72.3071 85.3095H79.6048Z" fill="#FFF7F7"/>
<circle cx="72.7895" cy="86.5254" r="2.43259" fill="black"/>
<rect x="61.9292" y="82.4746" width="19.4607" height="6.08148" rx="3.04074" transform="rotate(-9.86134 61.9292 82.4746)" fill="#9A9A9A"/>
<rect x="61.9292" y="82.4746" width="19.4607" height="6.08148" rx="3.04074" transform="rotate(-9.86134 61.9292 82.4746)" fill="#9A9A9A"/>
<path d="M106.602 85.3095C106.602 87.245 105.834 89.1012 104.465 90.4698C103.096 91.8384 101.24 92.6073 99.3046 92.6073C97.3691 92.6073 95.5129 91.8384 94.1443 90.4698C92.7757 89.1012 92.0068 87.245 92.0068 85.3095L99.3046 85.3095H106.602Z" fill="#FFF7F7"/>
<circle cx="102.236" cy="85.5488" r="2.43259" fill="black"/>
<rect x="89.335" y="79.2275" width="19.4607" height="6.08148" rx="3.04074" fill="#9A9A9A"/>
<rect x="89.335" y="79.2275" width="19.4607" height="6.08148" rx="3.04074" fill="#9A9A9A"/>
<path d="M86.9025 11.8535L114.289 58.3769H59.5156L86.9025 11.8535Z" fill="#913333"/>
<path d="M42.4344 56.0027L87.0079 12.0257L103.349 41.5065L42.4344 56.0027Z" fill="#913333"/>
<circle cx="44.9406" cy="55.0314" r="6.68963" fill="#EFEFEF"/>
<rect x="51.6304" y="58.0723" width="66.8963" height="12.163" fill="#EFEFEF"/>
<path d="M57.9131 103.561H115.067V122.856C115.067 138.639 102.273 151.433 86.49 151.433V151.433C70.7074 151.433 57.9131 138.639 57.9131 122.856V103.561Z" fill="#D9D9D9"/>
<circle cx="68.4158" cy="132.137" r="1.70973" fill="#647650"/>
<circle cx="72.8122" cy="136.534" r="2.68672" fill="#647650"/>
<path d="M83.559 114.062H102.366C102.366 117.238 102.61 117.238 99.6794 121.146C96.7484 125.054 101.389 133.847 94.7944 133.847C88.1997 133.847 96.0156 121.146 89.1767 121.146C83.7056 121.146 83.1519 116.424 83.559 114.062Z" fill="#E3C66A"/>
<path d="M68.6602 109.575C68.6602 106.253 71.3527 103.561 74.6741 103.561H96.3523C99.6738 103.561 102.366 106.253 102.366 109.575V114.307H68.6602V109.575Z" fill="#A59E9E"/>
<path d="M77.1064 115.716L77.1064 109.634" stroke="#323030" stroke-width="1.8042" stroke-linecap="round"/>
<path d="M94.5049 115.716L94.5049 109.634" stroke="#323030" stroke-width="1.8042" stroke-linecap="round"/>
<path d="M85.8057 115.716L85.8057 109.634" stroke="#323030" stroke-width="1.8042" stroke-linecap="round"/>
</svg>
