<svg width="200" height="257" viewBox="0 0 200 257" fill="none" xmlns="http://www.w3.org/2000/svg">
<rect x="37" y="93" width="130" height="164" rx="65" fill="#F1D0CE"/>
<mask id="mask0_1194_1463" style="mask-type:alpha" maskUnits="userSpaceOnUse" x="37" y="93" width="130" height="164">
<rect x="37" y="93" width="130" height="164" rx="65" fill="#F1D0CE"/>
</mask>
<g mask="url(#mask0_1194_1463)">
<circle cx="52.5" cy="220.5" r="21.5" fill="#FFC1BE"/>
<circle cx="148.5" cy="221.5" r="21.5" fill="#FFC1BE"/>
</g>
<path d="M32.1538 138.828C32.1538 100.252 63.4262 68.9795 102.003 68.9795C140.579 68.9795 171.852 100.252 171.852 138.828V140.098H137.562L116.607 101.364V140.098H32.1538V138.828Z" fill="#323030"/>
<path d="M36.5835 138.736C36.5835 135.982 38.8163 133.749 41.5706 133.749C44.8323 133.749 47.2161 136.828 46.3986 139.986L39.7801 165.551C39.5945 166.268 38.9479 166.769 38.2077 166.769C37.3107 166.769 36.5835 166.041 36.5835 165.144V150.259V138.736Z" fill="#323030"/>
<path d="M168.692 138.252C168.692 135.765 166.676 133.749 164.189 133.749C161.294 133.749 159.152 136.441 159.801 139.262L165.876 165.662C166.025 166.31 166.601 166.769 167.266 166.769C168.053 166.769 168.692 166.13 168.692 165.342V150.259V138.252Z" fill="#323030"/>
<circle cx="73.9457" cy="171.213" r="11.2109" fill="white"/>
<circle cx="73.9459" cy="171.213" r="3.73696" fill="#323030"/>
<circle cx="128.789" cy="171.213" r="11.2109" fill="white"/>
<circle cx="128.789" cy="171.213" r="3.73696" fill="#323030"/>
<path d="M16.6683 159.333C33.17 159.529 49.0409 165.701 61.3388 176.706L44.7109 200.721C31.0465 191.26 20.2104 178.263 13.3611 163.119L11.6215 159.273L16.6683 159.333Z" fill="#F1D0CE"/>
<path d="M42.8571 187.51C38.4544 184.636 29.338 177.391 28.0943 171.402C26.8506 165.413 36.3909 171.241 41.3166 174.904" stroke="#323030" stroke-width="4.32857" stroke-linecap="round"/>
<path d="M185.309 160.605C168.808 160.801 152.938 166.974 140.641 177.98L157.268 201.997C170.932 192.535 181.767 179.537 188.616 164.392L190.356 160.545L185.309 160.605Z" fill="#F1D0CE"/>
<path d="M159.121 188.786C163.523 185.912 172.639 178.666 173.883 172.677C175.126 166.687 165.587 172.516 160.661 176.179" stroke="#323030" stroke-width="4.32857" stroke-linecap="round"/>
<path d="M63.9033 197.247C68.1366 197.035 77.6191 195.215 81.683 189.627" stroke="#323030" stroke-width="4.32857" stroke-linecap="round"/>
<path d="M121.688 189.627C123.804 191.955 130.196 196.739 138.832 197.247" stroke="#323030" stroke-width="4.32857" stroke-linecap="round"/>
<path d="M111.758 247.022C108.904 245.699 101.156 243.772 93.0001 246.657" stroke="#323030" stroke-width="4.32857" stroke-linecap="round"/>
<path d="M104.543 171.848L86.2474 208.468C86.1994 208.564 86.2692 208.677 86.3764 208.677H104.543" stroke="#323030" stroke-width="4.32857" stroke-linecap="round"/>
<path d="M93 225H108.875" stroke="#323030" stroke-width="4.32857" stroke-linecap="round"/>
<path d="M60.6338 159.528H85.3984" stroke="#323030" stroke-width="4.32857" stroke-linecap="round"/>
<path d="M117.338 159.528H142.737" stroke="#323030" stroke-width="4.32857" stroke-linecap="round"/>
<path d="M102.443 0.107422L171.379 93.7426H33.8994L102.443 0.107422Z" fill="#333B2E"/>
<rect x="29.6152" y="91.8379" width="144.778" height="19.0497" fill="#ECECEC"/>
<path d="M8.26404 73.3842L102.442 0.1072L127.412 67.2851L8.26404 73.3842Z" fill="#333B2E"/>
<circle cx="12.4701" cy="69.6127" r="12.0648" fill="#ECECEC"/>
</svg>
