<svg width="205" height="258" viewBox="0 0 205 258" fill="none" xmlns="http://www.w3.org/2000/svg">
<path d="M21.6683 160.226C38.17 160.422 54.0409 166.594 66.3388 177.599L49.7109 201.614C36.0465 192.152 25.2104 179.155 18.3611 164.012L16.6215 160.166L21.6683 160.226Z" fill="#8BB182"/>
<path d="M47.8571 188.402C43.4544 185.529 34.338 178.284 33.0943 172.294C31.8506 166.305 41.3909 172.133 46.3166 175.796" stroke="#323030" stroke-width="4.32857" stroke-linecap="round"/>
<path d="M190.309 161.498C173.808 161.694 157.938 167.867 145.641 178.873L162.268 202.89C175.932 193.428 186.767 180.429 193.616 165.285L195.356 161.438L190.309 161.498Z" fill="#8BB182"/>
<path d="M164.121 189.679C168.523 186.805 177.639 179.559 178.883 173.569C180.126 167.579 170.587 173.408 165.661 177.071" stroke="#323030" stroke-width="4.32857" stroke-linecap="round"/>
<rect x="49.8535" y="94.002" width="114.298" height="163.827" rx="57.1491" fill="#8BB182"/>
<path d="M67.6338 152.421H92.3984M120.338 152.421H145.738" stroke="#323030" stroke-width="4.32857" stroke-linecap="round"/>
<path d="M37.1538 139.721C37.1538 101.144 68.4262 69.8721 107.003 69.8721C145.579 69.8721 176.852 101.144 176.852 139.721V140.991H142.562L121.607 102.257V140.991H37.1538V139.721Z" fill="#323030"/>
<path d="M48.5835 139.629C48.5835 136.874 50.8163 134.642 53.5706 134.642C56.8323 134.642 59.2161 137.721 58.3986 140.879L51.7801 166.444C51.5945 167.161 50.9479 167.661 50.2077 167.661C49.3107 167.661 48.5835 166.934 48.5835 166.037V151.151V139.629Z" fill="#323030"/>
<path d="M166.692 139.145C166.692 136.658 164.676 134.642 162.189 134.642C159.294 134.642 157.152 137.333 157.801 140.154L163.876 166.555C164.025 167.202 164.601 167.661 165.266 167.661C166.053 167.661 166.692 167.023 166.692 166.235V151.151V139.145Z" fill="#323030"/>
<circle cx="79.6981" cy="172.105" r="13.3348" fill="white"/>
<circle cx="79.6983" cy="172.105" r="4.44493" fill="#323030"/>
<circle cx="133.037" cy="172.105" r="13.3348" fill="white"/>
<circle cx="133.037" cy="172.105" r="4.44493" fill="#323030"/>
<path d="M126.687 190.52C128.804 192.848 135.196 197.631 143.832 198.139M68.9033 198.139C73.1366 197.928 82.6191 196.107 86.683 190.52" stroke="#323030" stroke-width="4.32857" stroke-linecap="round"/>
<path d="M109.543 172.74L84.2991 209.343C84.2331 209.439 84.3016 209.57 84.4178 209.57H109.276C109.39 209.57 109.459 209.697 109.396 209.793L97.6242 227.761C97.5613 227.857 97.6302 227.984 97.7449 227.984H113.353" stroke="#323030" stroke-width="4.32857" stroke-linecap="round"/>
<path d="M107.443 1L176.379 94.6352H38.8994L107.443 1Z" fill="#913333"/>
<rect x="34.6152" y="92.7305" width="144.778" height="19.0497" fill="#ECECEC"/>
<path d="M13.264 74.2768L107.442 0.999778L132.412 68.1776L13.264 74.2768Z" fill="#913333"/>
<circle cx="17.4701" cy="70.5052" r="12.0648" fill="#ECECEC"/>
</svg>
