<svg width="205" height="257" viewBox="0 0 205 257" fill="none" xmlns="http://www.w3.org/2000/svg">
<rect x="49.8535" y="93.1094" width="114.298" height="163.827" rx="57.1491" fill="#F1D0CE"/>
<path d="M67.6338 151.528H92.3984M120.338 151.528H145.738" stroke="#FFCF75" stroke-width="4.32857" stroke-linecap="round"/>
<path d="M37.1538 138.828C37.1538 100.252 68.4262 68.9795 107.003 68.9795C145.579 68.9795 176.852 100.252 176.852 138.828V140.098H142.562L121.607 101.364V140.098H37.1538V138.828Z" fill="#FFCF75"/>
<path d="M48.5835 138.736C48.5835 135.982 50.8163 133.749 53.5706 133.749C56.8323 133.749 59.2161 136.828 58.3986 139.986L51.7801 165.551C51.5945 166.268 50.9479 166.769 50.2077 166.769C49.3107 166.769 48.5835 166.041 48.5835 165.144V150.259V138.736Z" fill="#FFCF75"/>
<path d="M166.692 138.252C166.692 135.765 164.676 133.749 162.189 133.749C159.294 133.749 157.152 136.441 157.801 139.262L163.876 165.662C164.025 166.31 164.601 166.769 165.266 166.769C166.053 166.769 166.692 166.13 166.692 165.342V150.259V138.252Z" fill="#FFCF75"/>
<circle cx="79.6981" cy="171.213" r="13.3348" fill="white"/>
<circle cx="79.6983" cy="171.213" r="4.44493" fill="#323030"/>
<circle cx="133.037" cy="171.213" r="13.3348" fill="white"/>
<circle cx="133.037" cy="171.213" r="4.44493" fill="#323030"/>
<path d="M126.687 189.627C128.804 191.955 135.196 196.739 143.832 197.247M68.9033 197.247C73.1366 197.035 82.6191 195.215 86.683 189.627" stroke="#FF9DC6" stroke-width="4.32857" stroke-linecap="round"/>
<path d="M109.543 171.848L84.2991 208.451C84.2331 208.547 84.3016 208.677 84.4178 208.677H109.276C109.39 208.677 109.459 208.804 109.396 208.9L97.6242 226.868C97.5613 226.964 97.6302 227.092 97.7449 227.092H113.353" stroke="#FF9DC6" stroke-width="4.32857" stroke-linecap="round"/>
<path d="M21.6683 159.333C38.17 159.529 54.0409 165.701 66.3388 176.706L49.7109 200.721C36.0465 191.26 25.2104 178.263 18.3611 163.119L16.6215 159.273L21.6683 159.333Z" fill="#F1D0CE"/>
<path d="M47.8571 187.51C43.4544 184.636 34.338 177.391 33.0943 171.402C31.8506 165.413 41.3909 171.241 46.3166 174.904" stroke="#FF9DC6" stroke-width="4.32857" stroke-linecap="round"/>
<path d="M190.309 160.605C173.808 160.801 157.938 166.974 145.641 177.98L162.268 201.997C175.932 192.535 186.767 179.537 193.616 164.392L195.356 160.545L190.309 160.605Z" fill="#F1D0CE"/>
<path d="M164.121 188.786C168.523 185.912 177.639 178.666 178.883 172.677C180.126 166.687 170.587 172.516 165.661 176.179" stroke="#FF9DC6" stroke-width="4.32857" stroke-linecap="round"/>
<path d="M107.443 0.107422L176.379 93.7426H38.8994L107.443 0.107422Z" fill="#FF9DC6"/>
<rect x="34.6152" y="91.8379" width="144.778" height="19.0497" fill="#ECECEC"/>
<path d="M13.264 73.3842L107.442 0.1072L132.412 67.2851L13.264 73.3842Z" fill="#FF9DC6"/>
<circle cx="17.4701" cy="69.6127" r="12.0648" fill="#ECECEC"/>
</svg>
